solid camera_mount
   facet normal 0.000000e+000 0.000000e+000 1.000000e+000
      outer loop
         vertex 9.703456e-003 1.354957e-002 1.000000e-002
         vertex 4.703457e-003 1.354957e-002 1.000000e-002
         vertex 0.000000e+000 0.000000e+000 1.000000e-002
      endloop
   endfacet
   facet normal 0.000000e+000 0.000000e+000 1.000000e+000
      outer loop
         vertex 4.099740e-002 3.410107e-002 1.000000e-002
         vertex 4.599740e-002 3.410107e-002 1.000000e-002
         vertex 5.000000e-002 4.568214e-002 1.000000e-002
      endloop
   endfacet
   facet normal 0.000000e+000 0.000000e+000 1.000000e+000
      outer loop
         vertex 5.000000e-002 4.568214e-002 1.000000e-002
         vertex 4.599740e-002 3.410107e-002 1.000000e-002
         vertex 4.599740e-002 1.410107e-002 1.000000e-002
      endloop
   endfacet
   facet normal 0.000000e+000 0.000000e+000 1.000000e+000
      outer loop
         vertex 5.000000e-002 4.568214e-002 1.000000e-002
         vertex 4.599740e-002 1.410107e-002 1.000000e-002
         vertex 5.000000e-002 0.000000e+000 1.000000e-002
      endloop
   endfacet
   facet normal 0.000000e+000 0.000000e+000 1.000000e+000
      outer loop
         vertex 5.000000e-002 0.000000e+000 1.000000e-002
         vertex 4.599740e-002 1.410107e-002 1.000000e-002
         vertex 4.099740e-002 1.410107e-002 1.000000e-002
      endloop
   endfacet
   facet normal 0.000000e+000 0.000000e+000 1.000000e+000
      outer loop
         vertex 0.000000e+000 0.000000e+000 1.000000e-002
         vertex 4.703457e-003 1.354957e-002 1.000000e-002
         vertex 0.000000e+000 4.568214e-002 1.000000e-002
      endloop
   endfacet
   facet normal 0.000000e+000 0.000000e+000 1.000000e+000
      outer loop
         vertex 0.000000e+000 4.568214e-002 1.000000e-002
         vertex 4.703457e-003 1.354957e-002 1.000000e-002
         vertex 4.703457e-003 3.354957e-002 1.000000e-002
      endloop
   endfacet
   facet normal 0.000000e+000 0.000000e+000 1.000000e+000
      outer loop
         vertex 0.000000e+000 4.568214e-002 1.000000e-002
         vertex 4.703457e-003 3.354957e-002 1.000000e-002
         vertex 9.703456e-003 3.354957e-002 1.000000e-002
      endloop
   endfacet
   facet normal 0.000000e+000 0.000000e+000 1.000000e+000
      outer loop
         vertex 5.000000e-002 4.568214e-002 1.000000e-002
         vertex 0.000000e+000 4.568214e-002 1.000000e-002
         vertex 4.099740e-002 3.410107e-002 1.000000e-002
      endloop
   endfacet
   facet normal 0.000000e+000 0.000000e+000 1.000000e+000
      outer loop
         vertex 4.099740e-002 3.410107e-002 1.000000e-002
         vertex 0.000000e+000 4.568214e-002 1.000000e-002
         vertex 9.703456e-003 3.354957e-002 1.000000e-002
      endloop
   endfacet
   facet normal 0.000000e+000 0.000000e+000 1.000000e+000
      outer loop
         vertex 4.099740e-002 3.410107e-002 1.000000e-002
         vertex 9.703456e-003 3.354957e-002 1.000000e-002
         vertex 4.099740e-002 1.410107e-002 1.000000e-002
      endloop
   endfacet
   facet normal 0.000000e+000 0.000000e+000 1.000000e+000
      outer loop
         vertex 4.099740e-002 1.410107e-002 1.000000e-002
         vertex 9.703456e-003 3.354957e-002 1.000000e-002
         vertex 9.703456e-003 1.354957e-002 1.000000e-002
      endloop
   endfacet
   facet normal 0.000000e+000 0.000000e+000 1.000000e+000
      outer loop
         vertex 4.099740e-002 1.410107e-002 1.000000e-002
         vertex 9.703456e-003 1.354957e-002 1.000000e-002
         vertex 5.000000e-002 0.000000e+000 1.000000e-002
      endloop
   endfacet
   facet normal 0.000000e+000 0.000000e+000 1.000000e+000
      outer loop
         vertex 5.000000e-002 0.000000e+000 1.000000e-002
         vertex 9.703456e-003 1.354957e-002 1.000000e-002
         vertex 0.000000e+000 0.000000e+000 1.000000e-002
      endloop
   endfacet
   facet normal -1.000000e+000 0.000000e+000 0.000000e+000
      outer loop
         vertex 0.000000e+000 0.000000e+000 1.000000e-002
         vertex 0.000000e+000 4.568214e-002 1.000000e-002
         vertex 0.000000e+000 0.000000e+000 0.000000e+000
      endloop
   endfacet
   facet normal -1.000000e+000 0.000000e+000 0.000000e+000
      outer loop
         vertex 0.000000e+000 0.000000e+000 0.000000e+000
         vertex 0.000000e+000 4.568214e-002 1.000000e-002
         vertex 0.000000e+000 4.568214e-002 0.000000e+000
      endloop
   endfacet
   facet normal 0.000000e+000 -1.000000e+000 0.000000e+000
      outer loop
         vertex 5.000000e-002 0.000000e+000 1.000000e-002
         vertex 0.000000e+000 0.000000e+000 1.000000e-002
         vertex 5.000000e-002 0.000000e+000 0.000000e+000
      endloop
   endfacet
   facet normal 0.000000e+000 -1.000000e+000 0.000000e+000
      outer loop
         vertex 5.000000e-002 0.000000e+000 0.000000e+000
         vertex 0.000000e+000 0.000000e+000 1.000000e-002
         vertex 0.000000e+000 0.000000e+000 0.000000e+000
      endloop
   endfacet
   facet normal 1.000000e+000 1.518951e-016 0.000000e+000
      outer loop
         vertex 5.000000e-002 4.568214e-002 1.000000e-002
         vertex 5.000000e-002 0.000000e+000 1.000000e-002
         vertex 5.000000e-002 4.568214e-002 0.000000e+000
      endloop
   endfacet
   facet normal 1.000000e+000 1.518951e-016 0.000000e+000
      outer loop
         vertex 5.000000e-002 4.568214e-002 0.000000e+000
         vertex 5.000000e-002 0.000000e+000 1.000000e-002
         vertex 5.000000e-002 0.000000e+000 0.000000e+000
      endloop
   endfacet
   facet normal 0.000000e+000 1.000000e+000 0.000000e+000
      outer loop
         vertex 0.000000e+000 4.568214e-002 1.000000e-002
         vertex 5.000000e-002 4.568214e-002 1.000000e-002
         vertex 0.000000e+000 4.568214e-002 0.000000e+000
      endloop
   endfacet
   facet normal 0.000000e+000 1.000000e+000 0.000000e+000
      outer loop
         vertex 0.000000e+000 4.568214e-002 0.000000e+000
         vertex 5.000000e-002 4.568214e-002 1.000000e-002
         vertex 5.000000e-002 4.568214e-002 0.000000e+000
      endloop
   endfacet
   facet normal 0.000000e+000 0.000000e+000 -1.000000e+000
      outer loop
         vertex 5.000000e-002 4.568214e-002 0.000000e+000
         vertex 5.000000e-002 0.000000e+000 0.000000e+000
         vertex 0.000000e+000 4.568214e-002 0.000000e+000
      endloop
   endfacet
   facet normal 0.000000e+000 0.000000e+000 -1.000000e+000
      outer loop
         vertex 0.000000e+000 4.568214e-002 0.000000e+000
         vertex 5.000000e-002 0.000000e+000 0.000000e+000
         vertex 0.000000e+000 0.000000e+000 0.000000e+000
      endloop
   endfacet
   facet normal 0.000000e+000 -1.000000e+000 0.000000e+000
      outer loop
         vertex 9.703456e-003 1.354957e-002 1.500000e-002
         vertex 4.703457e-003 1.354957e-002 1.500000e-002
         vertex 9.703456e-003 1.354957e-002 1.000000e-002
      endloop
   endfacet
   facet normal 0.000000e+000 -1.000000e+000 0.000000e+000
      outer loop
         vertex 9.703456e-003 1.354957e-002 1.000000e-002
         vertex 4.703457e-003 1.354957e-002 1.500000e-002
         vertex 4.703457e-003 1.354957e-002 1.000000e-002
      endloop
   endfacet
   facet normal 1.000000e+000 0.000000e+000 0.000000e+000
      outer loop
         vertex 9.703456e-003 3.354957e-002 1.500000e-002
         vertex 9.703456e-003 1.354957e-002 1.500000e-002
         vertex 9.703456e-003 3.354957e-002 1.000000e-002
      endloop
   endfacet
   facet normal 1.000000e+000 0.000000e+000 0.000000e+000
      outer loop
         vertex 9.703456e-003 3.354957e-002 1.000000e-002
         vertex 9.703456e-003 1.354957e-002 1.500000e-002
         vertex 9.703456e-003 1.354957e-002 1.000000e-002
      endloop
   endfacet
   facet normal 0.000000e+000 1.000000e+000 0.000000e+000
      outer loop
         vertex 4.703457e-003 3.354957e-002 1.500000e-002
         vertex 9.703456e-003 3.354957e-002 1.500000e-002
         vertex 4.703457e-003 3.354957e-002 1.000000e-002
      endloop
   endfacet
   facet normal 0.000000e+000 1.000000e+000 0.000000e+000
      outer loop
         vertex 4.703457e-003 3.354957e-002 1.000000e-002
         vertex 9.703456e-003 3.354957e-002 1.500000e-002
         vertex 9.703456e-003 3.354957e-002 1.000000e-002
      endloop
   endfacet
   facet normal -1.000000e+000 -1.301043e-016 0.000000e+000
      outer loop
         vertex 4.703457e-003 1.354957e-002 1.500000e-002
         vertex 4.703457e-003 3.354957e-002 1.500000e-002
         vertex 4.703457e-003 1.354957e-002 1.000000e-002
      endloop
   endfacet
   facet normal -1.000000e+000 -1.301043e-016 0.000000e+000
      outer loop
         vertex 4.703457e-003 1.354957e-002 1.000000e-002
         vertex 4.703457e-003 3.354957e-002 1.500000e-002
         vertex 4.703457e-003 3.354957e-002 1.000000e-002
      endloop
   endfacet
   facet normal 0.000000e+000 0.000000e+000 1.000000e+000
      outer loop
         vertex 9.703456e-003 3.354957e-002 1.500000e-002
         vertex 4.703457e-003 3.354957e-002 1.500000e-002
         vertex 9.703456e-003 1.354957e-002 1.500000e-002
      endloop
   endfacet
   facet normal 0.000000e+000 0.000000e+000 1.000000e+000
      outer loop
         vertex 9.703456e-003 1.354957e-002 1.500000e-002
         vertex 4.703457e-003 3.354957e-002 1.500000e-002
         vertex 4.703457e-003 1.354957e-002 1.500000e-002
      endloop
   endfacet
   facet normal 0.000000e+000 -1.000000e+000 0.000000e+000
      outer loop
         vertex 4.599740e-002 1.410107e-002 1.500000e-002
         vertex 4.099740e-002 1.410107e-002 1.500000e-002
         vertex 4.599740e-002 1.410107e-002 1.000000e-002
      endloop
   endfacet
   facet normal 0.000000e+000 -1.000000e+000 0.000000e+000
      outer loop
         vertex 4.599740e-002 1.410107e-002 1.000000e-002
         vertex 4.099740e-002 1.410107e-002 1.500000e-002
         vertex 4.099740e-002 1.410107e-002 1.000000e-002
      endloop
   endfacet
   facet normal 1.000000e+000 3.469447e-016 0.000000e+000
      outer loop
         vertex 4.599740e-002 3.410107e-002 1.500000e-002
         vertex 4.599740e-002 1.410107e-002 1.500000e-002
         vertex 4.599740e-002 3.410107e-002 1.000000e-002
      endloop
   endfacet
   facet normal 1.000000e+000 3.469447e-016 0.000000e+000
      outer loop
         vertex 4.599740e-002 3.410107e-002 1.000000e-002
         vertex 4.599740e-002 1.410107e-002 1.500000e-002
         vertex 4.599740e-002 1.410107e-002 1.000000e-002
      endloop
   endfacet
   facet normal 0.000000e+000 1.000000e+000 0.000000e+000
      outer loop
         vertex 4.099740e-002 3.410107e-002 1.500000e-002
         vertex 4.599740e-002 3.410107e-002 1.500000e-002
         vertex 4.099740e-002 3.410107e-002 1.000000e-002
      endloop
   endfacet
   facet normal 0.000000e+000 1.000000e+000 0.000000e+000
      outer loop
         vertex 4.099740e-002 3.410107e-002 1.000000e-002
         vertex 4.599740e-002 3.410107e-002 1.500000e-002
         vertex 4.599740e-002 3.410107e-002 1.000000e-002
      endloop
   endfacet
   facet normal -1.000000e+000 0.000000e+000 0.000000e+000
      outer loop
         vertex 4.099740e-002 1.410107e-002 1.500000e-002
         vertex 4.099740e-002 3.410107e-002 1.500000e-002
         vertex 4.099740e-002 1.410107e-002 1.000000e-002
      endloop
   endfacet
   facet normal -1.000000e+000 0.000000e+000 0.000000e+000
      outer loop
         vertex 4.099740e-002 1.410107e-002 1.000000e-002
         vertex 4.099740e-002 3.410107e-002 1.500000e-002
         vertex 4.099740e-002 3.410107e-002 1.000000e-002
      endloop
   endfacet
   facet normal 0.000000e+000 0.000000e+000 1.000000e+000
      outer loop
         vertex 4.599740e-002 3.410107e-002 1.500000e-002
         vertex 4.099740e-002 3.410107e-002 1.500000e-002
         vertex 4.599740e-002 1.410107e-002 1.500000e-002
      endloop
   endfacet
   facet normal 0.000000e+000 0.000000e+000 1.000000e+000
      outer loop
         vertex 4.599740e-002 1.410107e-002 1.500000e-002
         vertex 4.099740e-002 3.410107e-002 1.500000e-002
         vertex 4.099740e-002 1.410107e-002 1.500000e-002
      endloop
   endfacet
endsolid